<?xml version="1.0" standalone="no"?><!DOCTYPE svg PUBLIC "-//W3C//DTD SVG 1.1//EN" "http://www.w3.org/Graphics/SVG/1.1/DTD/svg11.dtd"><svg t="1581831362423" class="icon" viewBox="0 0 1192 1024" version="1.1" xmlns="http://www.w3.org/2000/svg" p-id="8398" xmlns:xlink="http://www.w3.org/1999/xlink" width="37.25" height="32"><defs><style type="text/css"></style></defs><path d="M1116.497668 948.450686a257.717377 257.717377 0 1 1 55.903589-280.870449 258.068876 258.068876 0 0 1-55.903589 280.870449z m-75.411771-201.622757h-83.90123V662.919058a21.05172 21.05172 0 0 0-42.103441 0v83.908871h-84.054056a21.05172 21.05172 0 1 0 0 42.0958h84.054056v84.054056a21.05172 21.05172 0 0 0 42.103441 0.152826v-84.206882h83.90123a21.05172 21.05172 0 1 0 0-42.0958z m-374.774112-83.289928a281.879098 281.879098 0 0 0 78.544695 311.534897l-109.973271 40.208404a75.778552 75.778552 0 0 1-27.294644 1.467125h1.841548c-32.314964 0-52.159362-18.339067-52.159363-56.247446V530.885418c0-45.847667 28.188674-91.695334 68.007373-106.656956L962.801006 295.450007a87.569044 87.569044 0 0 1 28.799976-5.08145c34.637912 0 61.023245 26.102605 61.023245 63.422606v154.430225A282.605019 282.605019 0 0 0 666.319426 663.522719z m305.842145-434.903327l-385.88453 142.357006a231.018752 231.018752 0 0 1-139.071257 0l-385.88453-142.357006c-31.611966-11.675873-36.311352-28.685357-36.311352-37.778478s4.714668-26.110246 36.311352-37.786119l385.88453-142.364647a231.202143 231.202143 0 0 1 139.071257 0l385.88453 142.364647c31.611966 11.675873 36.318994 28.685357 36.318993 37.786119s-4.72231 26.087322-36.318993 37.763195zM78.498847 295.427083l342.718952 128.801379a121.351133 121.351133 0 0 1 74.120395 106.664597V960.508623c0 36.746905-26.117888 63.422606-60.946832 63.422605a77.742361 77.742361 0 0 1-27.141819-5.081449L69.283466 890.0484C29.915603 875.254886 0 829.384295 0 783.406726V353.837011C0 315.286764 20.700222 290.368557 52.724817 290.368557a73.49381 73.49381 0 0 1 25.77403 5.058526z" fill="#909399" p-id="8399"></path></svg>