<?xml version="1.0" standalone="no"?><!DOCTYPE svg PUBLIC "-//W3C//DTD SVG 1.1//EN" "http://www.w3.org/Graphics/SVG/1.1/DTD/svg11.dtd"><svg t="1590769561364" class="icon" viewBox="0 0 1024 1024" version="1.1" xmlns="http://www.w3.org/2000/svg" p-id="4897" width="32" height="32" xmlns:xlink="http://www.w3.org/1999/xlink"><defs><style type="text/css"></style></defs><path d="M831.6 828v93.2h-58.1V828h-93.2v-58h93.2v-93.2h58.1V770h93.2v58h-93.2z m-249.1-53.5v48.9H289.2c-54 0-97.8-43.8-97.8-97.8V236.8c0-54 43.8-97.8 97.8-97.8h440c54 0 97.8 43.8 97.8 97.8V579h-48.9c-108 0-195.6 87.5-195.6 195.5zM313.6 481.2h195.6c13.5 0 24.4-10.9 24.4-24.4 0-13.5-11-24.4-24.4-24.4H313.6c-13.5 0-24.4 10.9-24.4 24.4 0 13.5 11 24.4 24.4 24.4z m391.2-195.5H313.6c-13.5 0-24.4 10.9-24.4 24.4 0 13.5 10.9 24.4 24.4 24.4h391.1c13.5 0 24.4-10.9 24.4-24.4 0.1-13.5-10.8-24.4-24.3-24.4z" p-id="4898" fill="#909399"></path></svg>