<?xml version="1.0" standalone="no"?><!DOCTYPE svg PUBLIC "-//W3C//DTD SVG 1.1//EN" "http://www.w3.org/Graphics/SVG/1.1/DTD/svg11.dtd"><svg t="1581832333150" class="icon" viewBox="0 0 1024 1024" version="1.1" xmlns="http://www.w3.org/2000/svg" p-id="10958" width="32" height="32" xmlns:xlink="http://www.w3.org/1999/xlink"><defs><style type="text/css"></style></defs><path d="M833.706667 722.432h21.162666c18.005333 0 30.037333-12.032 30.037334-30.122667v-21.077333c0-18.090667-11.946667-30.122667-30.037334-30.122667H833.706667c-18.090667 0-30.122667 12.032-30.122667 30.122667v21.077333c0 18.090667 12.032 30.122667 30.122667 30.122667z m0 162.474667h21.162666c18.005333 0 30.037333-11.946667 30.037334-30.037334V833.706667c0-18.090667-11.946667-30.122667-30.037334-30.122667H833.706667c-18.090667 0-30.122667 12.032-30.122667 30.122667v21.077333c0 15.018667 12.032 30.037333 30.122667 30.037333z m0-322.048h21.162666c18.005333 0 30.037333-11.946667 30.037334-30.122667v-21.077333c0-18.005333-11.946667-30.037333-30.037334-30.037334H833.706667c-18.090667 0-30.122667 11.946667-30.122667 30.037334v21.077333c0 18.090667 12.032 30.122667 30.122667 30.122667z m-153.429334 159.573333h21.077334c18.005333 0 30.037333-12.032 30.037333-30.122667v-21.077333c0-18.090667-11.946667-30.122667-30.037333-30.122667h-21.077334c-18.090667 0-30.122667 12.032-30.122666 30.122667v21.077333c0 18.090667 15.018667 30.122667 30.122666 30.122667z m0-159.573333h21.077334c18.005333 0 30.037333-11.946667 30.037333-30.122667v-21.077333c0-18.005333-11.946667-30.037333-30.037333-30.037334h-21.077334c-18.090667 0-30.122667 11.946667-30.122666 30.037334v21.077333c0 18.090667 15.018667 30.122667 30.122666 30.122667z m-108.373333 400.298666h391.253333v-559.786666H571.904v559.786666z m-511.658667 0h451.413334V60.16H60.245333v902.997333z m923.989334-620.032H571.904V60.16A60.416 60.416 0 0 0 511.658667 0H60.245333A60.416 60.416 0 0 0 0 60.16v902.997333c0 33.194667 27.050667 60.245333 60.16 60.245334H981.333333a39.850667 39.850667 0 0 0 39.168-39.168V382.293333c2.986667-21.077333-15.104-39.168-36.181333-39.168z m-806.656 541.866667h21.077333c18.090667 0 30.122667-12.117333 30.122667-30.122667V833.706667c0-18.090667-12.032-30.122667-30.122667-30.122667h-21.077333c-18.005333 0-30.122667 12.032-30.122667 30.122667v21.077333a32.426667 32.426667 0 0 0 30.122667 30.037333z m502.613333 0h21.162667c18.005333 0 30.037333-12.117333 30.037333-30.122667V833.706667c0-18.090667-11.946667-30.122667-30.037333-30.122667h-21.077334c-18.090667 0-30.122667 12.032-30.122666 30.122667v21.077333a32.426667 32.426667 0 0 0 30.122666 30.037333z m-502.613333-162.56h21.077333c18.090667 0 30.122667-12.032 30.122667-30.122667v-21.077333c0-18.090667-12.032-30.122667-30.122667-30.122667h-21.077333c-18.005333 0-30.122667 12.032-30.122667 30.122667v21.077333c0 18.090667 15.104 30.122667 30.122667 30.122667z m183.637333 0h21.077333c18.005333 0 30.037333-12.032 30.037334-30.122667v-21.077333c0-18.090667-11.946667-30.122667-30.037334-30.122667h-21.077333c-18.090667 0-30.122667 12.032-30.122667 30.122667v21.077333c0 18.090667 12.032 30.122667 30.122667 30.122667z m0-159.573333h21.077333c18.005333 0 30.037333-11.946667 30.037334-30.122667v-21.077333c0-18.005333-11.946667-30.037333-30.037334-30.037334h-21.077333c-18.090667 0-30.122667 11.946667-30.122667 30.037334v21.077333c0 18.090667 12.032 30.122667 30.122667 30.122667z m0 322.048h21.077333c18.005333 0 30.037333-11.946667 30.037334-30.037334V833.706667c0-18.090667-11.946667-30.122667-30.037334-30.122667h-21.077333c-18.090667 0-30.122667 12.032-30.122667 30.122667v21.077333c0 15.018667 12.032 30.037333 30.122667 30.037333z m0-644.096h21.077333c18.005333 0 30.037333-12.032 30.037334-30.122667v-21.077333c0-18.005333-11.946667-30.122667-30.037334-30.122667h-21.077333c-18.090667 0-30.122667 12.117333-30.122667 30.122667v21.077333c0 18.090667 12.032 30.122667 30.122667 30.122667z m0 162.56h21.077333c18.005333 0 30.037333-12.032 30.037334-30.122667v-21.077333c0-18.090667-11.946667-30.122667-30.037334-30.122667h-21.077333c-18.090667 0-30.122667 12.032-30.122667 30.122667v21.077333c0 15.018667 12.032 30.122667 30.122667 30.122667zM177.493333 240.810667h21.077334c18.090667 0 30.122667-12.032 30.122666-30.122667v-21.077333c0-18.005333-12.032-30.122667-30.122666-30.122667h-21.077334c-18.005333 0-30.122667 12.117333-30.122666 30.122667v21.077333c0 18.090667 15.104 30.122667 30.122666 30.122667z m0 322.048h21.077334c18.090667 0 30.122667-11.946667 30.122666-30.122667v-21.077333c0-18.005333-12.032-30.037333-30.122666-30.037334h-21.077334c-18.005333 0-30.122667 11.946667-30.122666 30.037334v21.077333c0 18.090667 15.104 30.122667 30.122666 30.122667z m0-159.573334h21.077334c18.090667 0 30.122667-11.946667 30.122666-30.037333v-21.077333c0-18.090667-12.032-30.122667-30.122666-30.122667h-21.077334c-18.005333 0-30.122667 12.032-30.122666 30.122667v21.077333a32.426667 32.426667 0 0 0 30.122666 30.122667z" p-id="10959" fill="#909399"></path></svg>