<?xml version="1.0" standalone="no"?><!DOCTYPE svg PUBLIC "-//W3C//DTD SVG 1.1//EN" "http://www.w3.org/Graphics/SVG/1.1/DTD/svg11.dtd"><svg t="1581831402771" class="icon" viewBox="0 0 1024 1024" version="1.1" xmlns="http://www.w3.org/2000/svg" p-id="9466" xmlns:xlink="http://www.w3.org/1999/xlink" width="32" height="32"><defs><style type="text/css"></style></defs><path d="M738.8 460.1c-34.4-20.6-158.1-93.9-208.5-126-13.7-9.2-27.5-11.5-38.9-2.3-6.9 4.6-242.9 148.9-242.9 148.9s-20.6 9.2-20.6 50.4l13.7 268.1c0 18.3 16 34.4 36.7 34.4h460.5c18.3 0 34.4-16 36.7-34.4L787 533.4V515c-0.1 0-0.1-25.2-48.2-54.9z m-80.2 286.3H356.1c-9.2 0-16-6.9-16-16 0-9.2 6.9-16 16-16h300.1c9.2 0 16 6.9 16 16 0.1 9.2-6.8 16-13.6 16z m0-82.4H356.1c-9.2 0-16-6.9-16-16 0-9.2 6.9-16 16-16h300.1c9.2 0 16 6.9 16 16 0.1 9.1-6.8 16-13.6 16z m0-84.8H356.1c-9.2 0-16-6.9-16-16 0-9.2 6.9-16 16-16h300.1c9.2 0 16 6.9 16 16s-6.8 16-13.6 16z m183.3-169.5L530.3 196.6c-11.5-6.9-27.5-9.2-38.9 0l-307 203.9c-16 11.5-20.6 32.1-9.2 48.1 11.5 16 32.1 20.6 48.1 9.2L512 267.6l291 199.3c6.9 4.6 13.7 6.9 18.3 6.9 11.5 0 20.6-4.6 27.5-13.7 11.4-18.4 6.8-39-6.9-50.4z" p-id="9467" fill="#909399"></path></svg>