<?xml version="1.0" standalone="no"?><!DOCTYPE svg PUBLIC "-//W3C//DTD SVG 1.1//EN" "http://www.w3.org/Graphics/SVG/1.1/DTD/svg11.dtd"><svg t="1581831160164" class="icon" viewBox="0 0 1024 1024" version="1.1" xmlns="http://www.w3.org/2000/svg" p-id="6392" xmlns:xlink="http://www.w3.org/1999/xlink" width="32" height="32"><defs><style type="text/css"></style></defs><path d="M335.586616 784.319176c-140.769071 0-254.891248-62.813604-255.529791-140.449799-0.031722 29.650297-0.063445 55.592133-0.063445 55.592133 0 77.957513 114.409726 141.087319 255.593236 141.087319 141.18351 0 255.594259-63.129806 255.594259-141.087319l0-56.229652C591.180875 721.188346 476.770126 784.319176 335.586616 784.319176zM335.586616 882.46652c-140.769071 0-254.891248-62.812581-255.529791-140.447752-0.031722 29.64825-0.063445 55.591109-0.063445 55.591109 0 77.95649 114.409726 141.087319 255.593236 141.087319 141.18351 0 255.594259-63.130829 255.594259-141.087319l0-56.230676C591.180875 819.33569 476.770126 882.46652 335.586616 882.46652z" p-id="6393" fill="#909399"></path><path d="M662.746818 718.886931c-8.211009 0-16.32685-0.255827-24.346501-0.670266-0.350994 2.429329-0.255827 4.952802-0.734734 7.379061 1.661849 4.922103 2.588965 10.255575 2.588965 15.784498l0 33.099862c7.411807 0.382717 14.887059 0.638543 22.49227 0.638543 141.18351 0 255.593236-63.131853 255.593236-141.088342l0-56.229652C918.340053 655.756101 803.930327 718.886931 662.746818 718.886931z" p-id="6394" fill="#909399"></path><path d="M662.746818 620.739587c-8.211009 0-16.32685-0.255827-24.346501-0.671289-0.350994 2.428306-0.255827 4.953825-0.734734 7.381108 1.661849 4.951779 2.588965 10.255575 2.588965 15.783475l0 33.098839c7.411807 0.382717 14.887059 0.638543 22.49227 0.638543 141.18351 0 255.593236-63.129806 255.593236-141.086295l0-56.231699C918.340053 557.606711 803.930327 620.739587 662.746818 620.739587z" p-id="6395" fill="#909399"></path><path d="M662.746818 424.442852c-140.769071 0-254.892271-62.811558-255.530814-140.447752-0.031722 29.64825-0.063445 55.591109-0.063445 55.591109 0 33.290197 21.021779 63.834864 55.942103 87.986937 35.368532 9.649777 66.805522 23.258727 93.004207 40.128953 32.492018 8.243755 68.531839 12.972453 106.646925 12.972453 141.18351 0 255.593236-63.131853 255.593236-141.088342l0-56.229652C918.340053 361.310999 803.930327 424.442852 662.746818 424.442852z" p-id="6396" fill="#909399"></path><path d="M662.746818 522.591219c-17.189498 0-33.962509-0.958838-50.193169-2.747577 12.972453 17.924231 21.724791 37.44482 25.463951 58.274218 8.147564 0.448208 16.390295 0.704035 24.729218 0.704035 141.18351 0 255.593236-63.130829 255.593236-141.087319l0-56.230676C918.340053 459.459367 803.930327 522.591219 662.746818 522.591219z" p-id="6397" fill="#909399"></path><path d="M662.746818 100.350522c-141.184533 0-255.593236 63.130829-255.593236 141.087319 0 77.955466 114.409726 141.088342 255.593236 141.088342 141.18351 0 255.593236-63.132876 255.593236-141.088342C918.340053 163.481352 803.930327 100.350522 662.746818 100.350522z" p-id="6398" fill="#909399"></path><path d="M335.586616 460.225823c-141.184533 0-255.593236 63.130829-255.593236 141.087319s114.409726 141.089365 255.593236 141.089365c141.18351 0 255.594259-63.132876 255.594259-141.089365S476.770126 460.225823 335.586616 460.225823z" p-id="6399" fill="#909399"></path></svg>