<?xml version="1.0" standalone="no"?><!DOCTYPE svg PUBLIC "-//W3C//DTD SVG 1.1//EN" "http://www.w3.org/Graphics/SVG/1.1/DTD/svg11.dtd"><svg t="1581775846032" class="icon" viewBox="0 0 1024 1024" version="1.1" xmlns="http://www.w3.org/2000/svg" p-id="10369" width="32" height="32" xmlns:xlink="http://www.w3.org/1999/xlink"><defs><style type="text/css"></style></defs><path d="M701.4 117.1c-72.7 0-140.6 29.3-189.4 80.5-49.3-51.3-117.2-80.5-189.4-80.5-145.5 0-264.1 119.1-264.1 265.1 0 67.9 25.4 131.8 71.8 181.1 1 1 1.5 2 2.4 2.9l3.9 3.9L471 891.3c10.7 10.7 25.4 16.6 41 16.6 15.6 0 30.8-6.3 42-17.1 10.7-9.8 273.9-260.7 334.4-320.7l2.9-2.9c47.8-49.8 74.2-115.7 74.2-185 0-146-118.6-265.1-264.1-265.1zM323.1 250.3c-74.7 0-135.2 61-135.2 135.7 0 11.2-9.3 20.5-20.5 20.5s-20.5-9.3-20.5-20.5c0-97.1 79.1-176.2 175.7-176.2 11.2 0 20.5 9.3 20.5 20.5 0 10.8-8.8 20-20 20z" p-id="10370" fill="#909399"></path></svg>