<?xml version="1.0" standalone="no"?><!DOCTYPE svg PUBLIC "-//W3C//DTD SVG 1.1//EN" "http://www.w3.org/Graphics/SVG/1.1/DTD/svg11.dtd"><svg t="1581831284921" class="icon" viewBox="0 0 1024 1024" version="1.1" xmlns="http://www.w3.org/2000/svg" p-id="7548" xmlns:xlink="http://www.w3.org/1999/xlink" width="32" height="32"><defs><style type="text/css"></style></defs><path d="M442.729412 412.611765H243.952941c-15.058824 0-27.105882 12.047059-27.105882 27.105882v6.023529c0 15.058824 12.047059 27.105882 27.105882 27.105883h195.764706c15.058824 0 27.105882-12.047059 27.105882-27.105883v-6.023529c3.011765-15.058824-9.035294-27.105882-24.094117-27.105882zM927.623529 135.529412L873.411765 90.352941c-18.070588-15.058824-48.188235-12.047059-63.247059 6.02353l-234.917647 280.094117c-6.023529 6.023529-9.035294 15.058824-9.035294 21.082353v6.02353L542.117647 481.882353c0 6.023529 0 15.058824 3.011765 21.082353 9.035294 24.094118 33.129412 36.141176 57.223529 27.105882l75.294118-36.141176c3.011765 0 3.011765 0 3.011765-3.011765 6.023529-3.011765 15.058824-6.023529 18.070588-12.047059L933.647059 198.776471c18.070588-18.070588 15.058824-48.188235-6.02353-63.247059z m-271.058823 310.211764l-57.22353 30.117648 21.082353-63.247059v-3.011765l36.141177 36.141176z m36.141176-42.164705l-42.164706-33.129412L843.294118 138.541176l42.164706 33.129412-192.752942 231.905883z" p-id="7549" fill="#909399"></path><path d="M861.364706 379.482353c-18.070588 0-30.117647 12.047059-30.117647 30.117647v454.776471c0 12.047059-9.035294 21.082353-21.082353 21.082353H198.776471c-12.047059 0-21.082353-9.035294-21.082353-21.082353V195.764706c0-12.047059 9.035294-21.082353 21.082353-21.082353h415.623529c18.070588 0 30.117647-12.047059 30.117647-30.117647s-12.047059-30.117647-30.117647-30.117647H198.776471C153.6 114.447059 117.458824 150.588235 117.458824 195.764706v668.611765c0 45.176471 36.141176 81.317647 81.317647 81.317647H813.176471c45.176471 0 81.317647-36.141176 81.317647-81.317647V409.6c-3.011765-15.058824-15.058824-30.117647-33.129412-30.117647z" p-id="7550" fill="#909399"></path><path d="M789.082353 617.411765c0-15.058824-12.047059-27.105882-27.105882-27.105883H243.952941c-15.058824 0-27.105882 12.047059-27.105882 27.105883v6.023529c0 15.058824 12.047059 27.105882 27.105882 27.105882h518.02353c15.058824 0 27.105882-12.047059 27.105882-27.105882v-6.023529zM764.988235 752.941176H243.952941c-15.058824 0-27.105882 12.047059-27.105882 27.105883v6.023529c0 15.058824 12.047059 27.105882 27.105882 27.105883h518.02353c15.058824 0 27.105882-12.047059 27.105882-27.105883v-6.023529c0-15.058824-12.047059-27.105882-24.094118-27.105883z" p-id="7551" fill="#909399"></path></svg>