<?xml version="1.0" standalone="no"?><!DOCTYPE svg PUBLIC "-//W3C//DTD SVG 1.1//EN" "http://www.w3.org/Graphics/SVG/1.1/DTD/svg11.dtd"><svg t="1587569868177" class="icon" viewBox="0 0 1024 1024" version="1.1" xmlns="http://www.w3.org/2000/svg" p-id="6272" width="64" height="64" xmlns:xlink="http://www.w3.org/1999/xlink"><defs><style type="text/css"></style></defs><path d="M797.4528 922.88h-572.928c-25.024 0-46.3872-14.8096-54.7328-35.4176-63.3728 6.3616-101.5296 14.4384-101.5296 23.2704 0 20.1344 196.736 36.4672 439.4752 36.4672C750.4512 947.2 947.2 930.8672 947.2 910.7328c0-8.5504-35.712-16.4352-95.2192-22.6944-8.5504 20.416-29.696 34.8544-54.528 34.8544" fill="#E6ECF0" p-id="6273"></path><path d="M946.4064 556.4672v0.6144c0 1.5232 0 2.944-0.0896 4.352v0.2176c0 1.5104-0.1024 2.944-0.2048 4.2624v0.1024c-1.024 17.152-4.864 24.064-18.8544 24.064a38.9632 38.9632 0 0 1-1.408-77.8752c0.512 0 0.896-0.1024 1.408-0.1024 17.536 0 19.1488 10.6496 19.1488 38.9888v5.376zM842.752 215.9104V863.104a46.208 46.208 0 0 1-4.5568 19.8016 45.4016 45.4016 0 0 1-40.832 25.6896H226.6368a45.5424 45.5424 0 0 1-45.4016-45.4912V135.2832a45.504 45.504 0 0 1 45.4016-45.4912h490.24l2.6368 2.6368v-9.1264L849.2288 213.248h-9.1136l2.6368 2.6496zM123.8912 578.0992a37.7344 37.7344 0 0 1-26.9568 11.1616c-15.104 0-18.1376-7.5136-18.5344-32.896v-5.1712c0-29.4528 2.432-38.08 18.5344-38.08h1.024a38.0544 38.0544 0 0 1 25.9328 64.9856z m822.72 19.584c12.7744-9.4336 12.7744-29.44 12.7744-46.4896 0-23.168 0-51.9936-32.128-51.9936-1.5104 0-3.0336 0.1024-4.4544 0.2048l-38.0032-156.5696 16.32-51.6864c0-14.3232-11.648-25.984-25.9456-25.984h-19.456v-54.7456L722.2656 76.8h-495.616a58.4448 58.4448 0 0 0-58.368 58.496v129.9584h-19.456a26.0224 26.0224 0 0 0-25.9456 25.984l16.2176 51.9936L100.992 500.3136c-1.3184-0.1024-2.6368-0.2048-3.9552-0.2048h-0.1024c-31.5136 0-31.5136 28.3392-31.5136 51.072 0 16.5504 0.1024 35.9552 12.16 45.3888L25.6 811.136c0 14.3232 11.648 25.984 25.9456 25.984h116.736v26.0096c0 7.2064 1.408 14.1056 3.84 20.608A58.2912 58.2912 0 0 0 226.6624 921.6h570.7008a58.3168 58.3168 0 0 0 54.3232-37.2608 59.4432 59.4432 0 0 0 4.0448-21.2224V837.12h116.736A26.0224 26.0224 0 0 0 998.4 811.136l-51.7888-213.4528z" fill="#CEDAE0" p-id="6274"></path><path d="M927.488 512c-0.512 0-0.9216 0.1024-1.4464 0.1024-21.376 0.6912-38.5792 17.6-38.5792 38.2976 0 21.1968 17.9328 38.4 40.0384 38.4 8.448 0 13.2352-2.3936 16.0512-7.808v0.1024c0.1024-0.1024 0.1024-0.2944 0.2048-0.4992 0.32-0.4992 0.5248-1.1904 0.7296-1.792 0.2176-0.6016 0.4224-1.2032 0.64-1.9072 0.2048-0.6016 0.3072-1.3056 0.512-1.9968 0.2048-0.8064 0.32-1.7024 0.4224-2.5984l0.3072-2.0096c0.2048-1.5872 0.3072-3.392 0.512-5.2864v-0.1024c0.1152-1.3056 0.1152-2.7008 0.2176-4.1984v-0.2048c0-1.408 0.1024-2.8032 0.1024-4.3008V550.4c0-27.8016-1.664-38.4-19.712-38.4zM97.5104 512h-1.0752C79.3728 512 76.8 520.6016 76.8 550.4v5.2224c0 2.7648 0.1024 5.3248 0.2176 7.68v0.4096c0.1024 2.3552 0.32 4.4032 0.5376 6.3488v0.4096c0.2048 1.9456 0.5376 3.6864 0.8576 5.2224 0 0.1024 0 0.2048 0.1024 0.3072 0.4352 1.536 0.8576 2.9696 1.3952 4.3008 2.7904 6.2464 7.616 8.4992 16.4096 8.4992a40.96 40.96 0 0 0 28.5184-11.264c7.616-7.2704 11.8016-16.896 11.6992-27.136 0.2048-20.992-17.28-37.9904-39.04-38.4z m688.576-303.1424c-35.9936 0-65.2544-29.1456-65.2544-65.0112V87.9744l-2.6496-2.6368H224.8832A45.6576 45.6576 0 0 0 179.2 130.8416v728.1792a45.6064 45.6064 0 0 0 45.6832 45.5168H799.104A45.696 45.696 0 0 0 844.8 859.008V211.5072l-2.6496-2.6496h-56.0768z" fill="#FFFFFF" p-id="6275"></path><path d="M716.8 83.3024v65.792a64.3072 64.3072 0 0 0 64.256 64.2432h71.0016L716.8 83.2896zM388.352 341.3376A29.9264 29.9264 0 0 0 358.4 371.2a29.952 29.952 0 0 0 29.76 29.8624 29.8496 29.8496 0 0 0 29.9776-29.7728 29.8368 29.8368 0 0 0-29.7728-29.952M635.8272 341.3376A29.9264 29.9264 0 0 0 605.8752 371.2a29.952 29.952 0 0 0 29.76 29.8624A29.8368 29.8368 0 0 0 665.6 371.2896a29.8368 29.8368 0 0 0-29.7728-29.952M590.8096 477.8624h-148.992a6.8096 6.8096 0 0 0-4.736 1.9712c-1.2928 1.28-1.9712 3.0592-1.8688 4.864 1.344 42.6752 35.7888 77.1584 78.4256 78.5024h2.688a81.1904 81.1904 0 0 0 80.9984-78.5024 6.72 6.72 0 0 0-1.856-4.864 6.4 6.4 0 0 0-4.6592-1.9712" fill="#CEDAE0" p-id="6276"></path><path d="M511.3216 554.624a62.9888 62.9888 0 0 1-41.984-17.7152c7.5392-9.6768 23.4112-16.384 41.792-16.384 20.032 0 37.056 7.9616 43.5328 18.9696a63.2192 63.2192 0 0 1-43.3408 15.1296z" fill="#CEDAE0" p-id="6277"></path><path d="M507.7248 518.1696c-19.3408 0-36.0448 7.168-43.9936 17.5104a66.2144 66.2144 0 0 0 89.8304 2.7648c-6.8224-11.776-24.7424-20.2752-45.824-20.2752m172.928-87.8848c0 7.3984 5.888 14.2208 15.4368 17.92a44.3264 44.3264 0 0 0 30.8608 0c9.5488-3.6992 15.4368-10.5216 15.4368-17.92 0-7.3856-5.888-14.208-15.4368-17.92a44.3264 44.3264 0 0 0-30.848 0c-9.5616 3.712-15.4368 10.5344-15.4368 17.92m-407.616 0c0 7.3984 5.888 14.2208 15.4368 17.92a44.3136 44.3136 0 0 0 30.848 0c9.5616-3.6992 15.4368-10.5216 15.4368-17.92 0-7.3856-5.8752-14.208-15.424-17.92a44.3136 44.3136 0 0 0-30.8608 0c-9.5488 3.712-15.4368 10.5344-15.4368 17.92" fill="#EBF2F5" p-id="6278"></path></svg>