<?xml version="1.0" standalone="no"?><!DOCTYPE svg PUBLIC "-//W3C//DTD SVG 1.1//EN" "http://www.w3.org/Graphics/SVG/1.1/DTD/svg11.dtd"><svg t="1590769707753" class="icon" viewBox="0 0 1024 1024" version="1.1" xmlns="http://www.w3.org/2000/svg" p-id="8392" width="32" height="32" xmlns:xlink="http://www.w3.org/1999/xlink"><defs><style type="text/css"></style></defs><path d="M814.420733 1023.836186h-767.87714A46.543593 46.543593 0 0 1 0 977.292593V162.892337a46.543593 46.543593 0 0 1 46.543593-46.543593h814.400256a46.543593 46.543593 0 0 1 46.543593 46.543593v545.909455c-15.275636-10.791233-28.094065-28.56503-33.684211-57.273397h-58.87058s-16.156135 97.530635-120.607903 68.269397l-0.921453 1.535755H197.784674v69.825628h485.134539c17.466645 22.995361 32.803711 64.276436-19.760038 113.93249l31.738921 51.621821S784.934251 918.278675 814.359303 1023.836186h0.06143zM197.784674 349.025756v69.825628h500.287314v-69.825628H197.784674z m0 186.153895v69.825628h500.287314v-69.825628H197.784674z m756.246361 197.805151V69.784674H81.43593A69.825628 69.825628 0 0 1 151.261558 0h826.031035A46.543593 46.543593 0 0 1 1023.836186 46.543593v686.420733h-69.825628z m34.892337 49.94273c-61.880659 56.863862 0 110.451448 0 110.451447s-0.450488 0.470965-23.732523 40.093425c-81.906895-23.302512-96.793473 55.450968-96.793473 55.450968h-48.406974c-23.732523-85.756519-96.322508-54.529515-96.322509-54.529515l-25.595905-41.93633c65.607423-62.454007 0-108.608543 0-108.608543s0.921453-1.392417 25.12494-41.956807c84.241241 23.773476 97.264438-55.450968 97.264438-55.450968h47.465046c15.357543 79.244921 97.735402 55.921932 97.735402 55.921933s-0.470965 0.941929 23.261558 40.543913zM837.702768 895.856663c32.271317 0 58.174372-26.414974 58.174372-58.153895a57.990082 57.990082 0 0 0-58.153896-58.194849 57.990082 57.990082 0 0 0-58.194849 58.174372 57.990082 57.990082 0 0 0 58.174373 58.174372z" p-id="8393" fill="#909399"></path></svg>