<?xml version="1.0" standalone="no"?><!DOCTYPE svg PUBLIC "-//W3C//DTD SVG 1.1//EN" "http://www.w3.org/Graphics/SVG/1.1/DTD/svg11.dtd"><svg t="1586934304853" class="icon" viewBox="0 0 1024 1024" version="1.1" xmlns="http://www.w3.org/2000/svg" p-id="4836" width="20" height="20" xmlns:xlink="http://www.w3.org/1999/xlink"><defs><style type="text/css"></style></defs><path d="M845.203685 431.947779l-62.821295 0 0.132012-184.997388c0-110.189611-114.298776-199.331861-255.580171-199.331861-141.277302 0-255.837032 89.14225-255.837032 199.331861l-1.172757 184.997388-64.122994 0c-35.449802 0-62.559318 28.473495-62.559318 56.102762l-1.432687 400.262126c0 27.597545 29.97796 56.104809 65.296774 56.104809l639.531179 0c35.321884 0 62.430376-28.507264 62.430376-56.104809l1.432687-400.262126C910.500459 460.422298 880.392534 431.947779 845.203685 431.947779L845.203685 431.947779zM653.356612 431.947779 398.038418 431.947779 398.038418 239.847623c0-54.964846 58.389174-92.563162 128.896837-92.563162 70.379744 0 127.336231 37.598316 127.336231 92.563162L653.356612 431.947779 653.356612 431.947779z" p-id="4837" fill="#707070"></path></svg>