<?xml version="1.0" standalone="no"?><!DOCTYPE svg PUBLIC "-//W3C//DTD SVG 1.1//EN" "http://www.w3.org/Graphics/SVG/1.1/DTD/svg11.dtd"><svg t="1590769753631" class="icon" viewBox="0 0 1024 1024" version="1.1" xmlns="http://www.w3.org/2000/svg" p-id="9990" width="32" height="32" xmlns:xlink="http://www.w3.org/1999/xlink"><defs><style type="text/css"></style></defs><path d="M1013.248 266.24h-0.512 0.512zM992.768 377.856h-2.048c-3.584 0-7.68 0.512-11.264 0.512-4.096-0.512-8.704-1.024-12.8-1.024h-542.72v268.8H814.08c15.36-21.504 18.944-44.032 18.944-44.032h64.512c3.584 18.432 10.24 32.768 17.92 44.032h51.2c4.608 0 9.216-0.512 13.312-1.024-1.536 0-2.56-0.512-4.096-1.024 3.072 0.512 6.144 1.024 9.216 1.024 16.896 4.608 33.792-5.632 37.888-22.528 0.512-2.56 1.024-5.12 1.024-7.168 0-9.216-4.096-17.408-11.264-23.04h0.512-0.512c-4.608-3.584-9.728-6.144-15.36-6.656-13.824-12.288-23.552-40.96-23.552-73.728 0-33.28 9.728-61.44 23.552-73.728 5.632-1.024 11.264-3.072 15.36-6.656h0.512-0.512c7.168-5.632 11.264-14.336 11.264-23.04-0.512-17.408-13.824-30.72-31.232-30.72h1.024-1.024zM95.232 320h67.584v-153.6c0-18.944 17.408-34.304 39.424-34.304H384c21.504 0 39.424 15.36 39.424 34.304v153.6h542.72c4.608 0 9.216-0.512 13.312-1.024-1.024 0-2.56-0.512-3.584-1.024 3.072 0.512 5.632 0.512 8.704 1.024 16.896 4.608 33.792-5.632 37.888-22.528 0.512-2.56 1.024-5.12 1.024-7.168 0-9.216-4.096-17.408-11.264-23.04-4.608-3.584-9.728-6.144-15.36-6.656-13.824-12.288-23.552-40.96-23.552-73.728s9.728-61.44 23.552-73.728c5.632-1.024 11.264-3.072 15.36-6.656h0.512c7.168-5.632 11.264-14.336 11.264-23.04-0.512-16.896-13.824-30.208-30.72-30.72h0.512H990.72c-3.584 0-7.168 0.512-10.752 1.024-4.608-0.512-8.704-1.024-13.312-1.024H95.232C42.496 51.2 0 92.16 0 142.848v84.992c0 51.2 42.496 92.16 95.232 92.16zM701.44 937.984l-34.816-56.832c89.088-84.48 0-146.432 0-146.432s1.024-1.024 18.432-30.208H423.424V906.24l-130.56-125.952L162.816 906.24v-202.24H95.232c-52.224 0-95.232 40.96-95.232 91.648V880.64c0 51.2 42.496 92.16 95.232 92.16h720.896c-40.96-67.072-114.688-34.816-114.688-34.816zM95.232 646.144h67.584V377.344H95.232C42.496 377.344 0 418.816 0 469.504v84.992c0 50.688 42.496 91.648 95.232 91.648z" fill="#909399" p-id="9991"></path><path d="M241.664 193.024c-12.288 0-22.528 8.704-22.528 19.456v551.936l73.728-71.168 73.728 71.168V212.48c0-10.752-10.24-19.456-22.528-19.456h-102.4zM1024 741.376c-26.112-43.52-25.6-44.544-25.6-44.544s-90.624 25.6-107.52-61.44h-52.224s-14.336 87.04-107.008 60.928c-26.624 44.544-27.648 46.08-27.648 46.08s72.192 50.688 0 119.296l28.16 46.08s79.872-34.304 105.984 59.904H890.88s16.384-86.528 106.496-60.928c25.6-43.52 26.112-44.032 26.112-44.032s-67.584-58.368 0.512-121.344z m-160.256 121.344c-33.792 0-60.928-27.136-60.928-60.928 0-33.792 27.136-60.928 60.928-60.928s60.928 27.136 60.928 60.928c0 33.792-27.136 60.928-60.928 60.928z" fill="#909399" p-id="9992"></path></svg>