<?xml version="1.0" standalone="no"?><!DOCTYPE svg PUBLIC "-//W3C//DTD SVG 1.1//EN" "http://www.w3.org/Graphics/SVG/1.1/DTD/svg11.dtd"><svg t="1586794900744" class="icon" viewBox="0 0 1027 1024" version="1.1" xmlns="http://www.w3.org/2000/svg" p-id="2910" width="14.041015625" height="14" xmlns:xlink="http://www.w3.org/1999/xlink"><defs><style type="text/css"></style></defs><path d="M983.832333 313.34859A511.938806 511.938806 0 1 0 1023.959637 512.031249a508.934907 508.934907 0 0 0-40.127304-198.69595zM735.173304 734.811556c-12.746633 12.746633-32.830222 13.291588-44.872402 1.329159L510.066968 555.893489 329.806451 736.114132c-11.962429 11.962429-32.125768 11.444057-44.872401-1.329159s-13.291588-32.843514-1.329159-44.872402l180.233934-180.233934-180.207351-180.20735c-12.028887-12.028887-11.457349-32.112477 1.329159-44.85911s32.830222-13.291588 44.872401-1.329159l180.260518 180.233934 180.233934-180.233934c11.962429-11.962429 32.125768-11.444057 44.872401 1.329159s13.291588 32.843514 1.329159 44.872401L556.241945 509.705221l180.233934 180.233934c11.962429 11.962429 11.457349 32.125768-1.329158 44.872401z m0 0" p-id="2911" fill="#a9b3bf"></path></svg>