<?xml version="1.0" standalone="no"?><!DOCTYPE svg PUBLIC "-//W3C//DTD SVG 1.1//EN" "http://www.w3.org/Graphics/SVG/1.1/DTD/svg11.dtd"><svg t="1581839743421" class="icon" viewBox="0 0 1064 1024" version="1.1" xmlns="http://www.w3.org/2000/svg" p-id="16309" width="33.25" height="32" xmlns:xlink="http://www.w3.org/1999/xlink"><defs><style type="text/css"></style></defs><path d="M953.83552 1021.3376H111.49312a104.8576 104.8576 0 0 1-105.2672-104.448v-487.8336c0-57.71264 47.104-104.448 105.2672-104.448h70.20544l298.1888-227.08224a70.28736 70.28736 0 0 1-2.33472-16.87552c0-38.5024 31.45728-69.67296 70.20544-69.67296 38.78912 0 70.20544 31.21152 70.20544 69.67296 0 12.57472-3.60448 24.1664-9.37984 34.32448l275.16928 209.5104h70.20544c58.1632 0 105.2672 46.73536 105.2672 104.448v487.8336a105.02144 105.02144 0 0 1-105.39008 104.57088z m-383.54944-223.6416h141.5168v-26.4192h-111.65696v-198.0416h-29.85984v224.4608z m-202.5472 0l24.82176-67.9936h95.0272l25.96864 67.9936h34.07872l-92.24192-224.58368h-32.3584l-86.95808 224.58368h31.66208z m-209.18272-198.16448a56.9344 56.9344 0 0 0-9.6256 31.78496c0 10.40384 2.6624 19.57888 7.94624 27.97568 5.3248 8.35584 13.39392 15.27808 24.08448 20.8896 8.31488 4.42368 22.77376 9.09312 43.49952 14.00832 20.6848 4.9152 34.07872 8.6016 40.09984 10.97728 9.37984 3.60448 16.22016 8.02816 20.31616 13.27104a28.42624 28.42624 0 0 1 6.26688 18.432 32.3584 32.3584 0 0 1-6.38976 19.2512 41.3696 41.3696 0 0 1-19.49696 13.84448 81.01888 81.01888 0 0 1-30.1056 5.12c-12.73856 0-24.33024-2.12992-34.57024-6.67648-10.24-4.42368-17.8176-10.28096-22.60992-17.6128a64.63488 64.63488 0 0 1-9.4208-27.68896l-28.2624 2.37568c0.32768 15.07328 4.54656 28.4672 12.36992 40.30464 7.82336 11.91936 18.67776 20.76672 32.52224 26.74688 13.84448 5.98016 30.96576 8.84736 51.32288 8.84736 16.13824 0 30.55616-2.99008 43.4176-8.84736 12.9024-5.85728 22.81472-13.96736 29.65504-24.576a60.6208 60.6208 0 0 0 10.36288-33.75104c0-12.04224-3.11296-22.56896-9.4208-31.78496-6.22592-9.33888-15.9744-16.83456-29.24544-22.81472-9.0112-4.096-25.76384-8.84736-49.9712-14.336-24.1664-5.5296-39.23968-10.89536-44.89216-16.01536a25.14944 25.14944 0 0 1-8.8064-19.8656c0-9.33888 4.096-17.2032 12.41088-23.7568 8.31488-6.59456 21.42208-9.95328 39.36256-9.95328 17.32608 0 30.47424 3.60448 39.28064 10.77248 8.88832 7.168 14.09024 17.94048 15.52384 31.90784l28.75392-2.17088a67.584 67.584 0 0 0-11.0592-35.34848 64.06144 64.06144 0 0 0-29.4912-23.67488 113.54112 113.54112 0 0 0-44.31872-8.02816c-15.1552 0-29.04064 2.53952-41.45152 7.65952-12.16512 5.36576-21.66784 12.77952-28.0576 22.7328z m432.9472-464.85504a69.75488 69.75488 0 0 1-100.352-12.9024L216.63744 324.608h631.88992L591.4624 134.67648z m325.0176 636.60032h-138.73152v-76.51328h124.96896v-26.4192H777.8304v-68.8128h133.5296v-26.4192h-163.4304v224.58368h168.7552l-0.12288-26.4192zM438.272 596.66432c3.60448 12.288 9.0112 27.8528 16.01536 46.6944l23.83872 62.0544H400.9984l25.02656-65.7408c5.3248-14.09024 9.4208-28.42624 12.288-43.008z" p-id="16310" fill="#909399"></path></svg>