<?xml version="1.0" standalone="no"?><!DOCTYPE svg PUBLIC "-//W3C//DTD SVG 1.1//EN" "http://www.w3.org/Graphics/SVG/1.1/DTD/svg11.dtd"><svg t="1581841034656" class="icon" viewBox="0 0 1070 1024" version="1.1" xmlns="http://www.w3.org/2000/svg" p-id="29178" width="33.4375" height="32" xmlns:xlink="http://www.w3.org/1999/xlink"><defs><style type="text/css"></style></defs><path d="M1027.816727 679.796364h-131.490909c-24.226909 0-44.939636-24.459636-44.939636-54.760728v-109.358545c0-30.254545 20.712727-54.784 44.939636-54.784h131.490909c24.226909 0 42.728727 24.529455 42.728728 54.784v109.405091c0 30.254545-18.501818 54.714182-42.728728 54.714182zM954.181818 418.909091h-93.090909c-29.090909 0-69.818182 56.808727-69.818182 93.090909v116.363636c0 36.328727 17.454545 93.090909 46.545455 93.090909h46.545454l70.144-0.139636c15.848727-0.488727 22.946909 3.118545 22.946909 23.412364v209.454545c0 48.384-24.622545 69.818182-63.348363 69.818182H177.570909C138.798545 1024 116.363636 979.223273 116.363636 930.909091V698.181818c0-15.709091 3.770182-20.456727 19.479273-20.456727h64.372364c29.928727 0 54.295273-29.44 54.295272-65.722182 0-36.258909-24.366545-65.605818-54.295272-65.605818H135.842909a28.462545 28.462545 0 0 1-28.462545-28.439273v-8.843636c0-15.709091 12.753455-28.439273 28.462545-28.439273h64.372364c29.928727 0 54.295273-29.393455 54.295272-65.605818 0-36.328727-24.366545-65.722182-54.295272-65.722182H135.842909a28.462545 28.462545 0 1 1 0-56.901818h64.372364c29.928727 0 54.295273-29.393455 54.295272-65.605818 0-36.328727-24.366545-65.722182-54.295272-65.722182H135.842909C120.133818 161.117091 116.363636 155.345455 116.363636 139.636364V69.818182c0-48.314182 22.434909-69.818182 61.160728-69.818182h736.581818C952.832 0 977.454545 21.504 977.454545 69.818182v325.818182c0 15.709091-7.563636 23.272727-23.272727 23.272727zM395.636364 698.181818h279.272727a46.545455 46.545455 0 1 0 0-93.090909H395.636364a46.545455 46.545455 0 1 0 0 93.090909z m0-209.454545h279.272727a46.545455 46.545455 0 1 0 0-93.090909H395.636364a46.545455 46.545455 0 1 0 0 93.090909zM768 186.181818H395.636364a46.545455 46.545455 0 1 0 0 93.090909h372.363636a46.545455 46.545455 0 1 0 0-93.090909zM219.159273 226.769455l0.046545-0.046546c0 24.226909-20.270545 43.822545-45.288727 43.822546H45.288727A44.613818 44.613818 0 0 1 0 226.722909c0-24.157091 20.270545-43.752727 45.288727-43.752727h128.581818c24.948364 0 45.288727 19.595636 45.288728 43.799273zM45.288727 371.2h128.581818c24.948364 0 45.288727 19.595636 45.288728 43.799273l0.046545-0.046546c0 24.226909-20.270545 43.822545-45.288727 43.822546H45.288727A44.613818 44.613818 0 0 1 0 414.952727c0-24.157091 20.270545-43.752727 45.288727-43.752727z m0 196.933818h128.581818c24.948364 0 45.288727 19.642182 45.288728 43.799273h0.046545c0 24.180364-20.270545 43.822545-45.288727 43.822545H45.288727A44.497455 44.497455 0 0 1 0 611.933091c0-24.157091 20.270545-43.799273 45.288727-43.799273z" p-id="29179" fill="#909399"></path></svg>