<?xml version="1.0" standalone="no"?><!DOCTYPE svg PUBLIC "-//W3C//DTD SVG 1.1//EN" "http://www.w3.org/Graphics/SVG/1.1/DTD/svg11.dtd"><svg t="1581840928930" class="icon" viewBox="0 0 1024 1024" version="1.1" xmlns="http://www.w3.org/2000/svg" p-id="27417" width="32" height="32" xmlns:xlink="http://www.w3.org/1999/xlink"><defs><style type="text/css"></style></defs><path d="M810.666667 128h-179.2c-17.066667-51.2-64-85.333333-119.466667-85.333333s-102.4 34.133333-119.466667 85.333333H213.333333c-46.933333 0-85.333333 38.4-85.333333 85.333333v597.333334c0 46.933333 38.4 85.333333 85.333333 85.333333h597.333334c46.933333 0 85.333333-38.4 85.333333-85.333333V213.333333c0-46.933333-38.4-85.333333-85.333333-85.333333z m-298.666667 0c25.6 0 42.666667 21.333333 42.666667 42.666667s-17.066667 42.666667-42.666667 42.666666-42.666667-17.066667-42.666667-42.666666 17.066667-42.666667 42.666667-42.666667z m0 256l213.333333 213.333333h-128v170.666667h-170.666666v-170.666667H298.666667l213.333333-213.333333z" p-id="27418" fill="#909399"></path></svg>