<?xml version="1.0" standalone="no"?><!DOCTYPE svg PUBLIC "-//W3C//DTD SVG 1.1//EN" "http://www.w3.org/Graphics/SVG/1.1/DTD/svg11.dtd"><svg t="1586934249724" class="icon" viewBox="0 0 1024 1024" version="1.1" xmlns="http://www.w3.org/2000/svg" p-id="3852" width="20" height="20" xmlns:xlink="http://www.w3.org/1999/xlink"><defs><style type="text/css"></style></defs><path d="M921.6 906.667H102.4A100.885 100.885 0 0 1 0 808l0.47-487.424V215.083a100.48 100.48 0 0 1 101.93-97.75h819.2a100.95 100.95 0 0 1 102.4 97.472V808a100.885 100.885 0 0 1-102.4 98.667z m-490.432-583.36a42.667 42.667 0 0 0-42.667-42.667H177.408a42.667 42.667 0 0 0-42.667 42.667v186.858a42.667 42.667 0 0 0 42.667 42.667h211.093a42.667 42.667 0 0 0 42.667-42.667V323.307z m458.112-21.334a21.333 21.333 0 0 0-21.333-21.333H533.333A21.333 21.333 0 0 0 512 301.973v38.998a21.333 21.333 0 0 0 21.333 21.333h334.592a21.333 21.333 0 0 0 21.334-21.333v-38.998z m0 190.528a21.333 21.333 0 0 0-21.333-21.333H533.333A21.333 21.333 0 0 0 512 492.501V531.5a21.333 21.333 0 0 0 21.333 21.333h334.592a21.333 21.333 0 0 0 21.334-21.333V492.5z m0 163.307a21.333 21.333 0 0 0-21.333-21.333H156.075a21.333 21.333 0 0 0-21.334 21.333v38.997a21.333 21.333 0 0 0 21.334 21.334h711.85a21.333 21.333 0 0 0 21.334-21.334v-38.997z" fill="#707070" p-id="3853"></path></svg>