<?xml version="1.0" standalone="no"?><!DOCTYPE svg PUBLIC "-//W3C//DTD SVG 1.1//EN" "http://www.w3.org/Graphics/SVG/1.1/DTD/svg11.dtd"><svg t="1581831084736" class="icon" viewBox="0 0 1024 1024" version="1.1" xmlns="http://www.w3.org/2000/svg" p-id="3319" xmlns:xlink="http://www.w3.org/1999/xlink" width="32" height="32"><defs><style type="text/css"></style></defs><path d="M776.4 648c41.6-30.6 66.2-79.2 66.2-130.9 2.5-58.2-27.1-113.1-77.1-142.9-50-29.9-112.4-29.9-162.4 0s-79.6 84.7-77.1 142.9c-0.1 51.8 24.6 100.4 66.5 130.9-83.7 42.4-139 125.5-145.7 219 0 15.1 7.7 27 22.3 27h429.7c14.5 0 22.3-11.9 22.3-27-6.9-93.2-61.8-176.2-144.8-219h0.1z m0 0" p-id="3320" fill="#909399"></path><path d="M518.5 634c-38.2-47.8-55.3-109.1-47.2-169.8 8.2-55.4 38-105.3 82.8-138.9 57.2-39.8 130.1-49.4 195.6-25.8 57.9 22 59.4 45.4 66.2 45.4 7-0.1 13.7-2.9 18.6-7.9 4.9-5 7.6-11.8 7.5-18.8v-45.1c3-76.1-56-140.3-132.1-143.6H235.1C159 132.9 100 197.1 103 273.2v466.5c-3 76.1 56 140.3 132.1 143.6h105.4c6.7 0.8 13.4-1.2 18.5-5.6 5.1-4.4 8.1-10.8 8.2-17.5 1.3-20.6 6.6-40.8 15.7-59.4 14.2-33.4 33.3-64.5 56.7-92.3 22.5-28.5 49.1-53.6 78.9-74.5zM287.9 245h192c9.3 0.2 17.1 7.3 18.1 16.6 1 5.6-0.3 11.5-3.7 16.1-3.4 4.6-8.5 7.7-14.1 8.5H289.4c-5.4 0.6-10.8-1.2-14.7-4.9-3.9-3.7-6.1-9-5.8-14.4-0.3-5.3 1.5-10.5 5.1-14.4 3.6-3.9 8.6-6.2 13.9-6.4V245z m-72.4-5.1c9.4-0.1 18.1 4.7 22.9 12.8 4.7 8.1 4.7 18.1 0 26.1-4.8 8-13.5 12.9-22.9 12.8-14.3 0-25.8-11.6-25.8-25.8 0-14.3 11.5-25.9 25.8-25.9z m150.4 376H207.8c-8.8 1-17.5-3.1-22.2-10.7-4.7-7.5-4.7-17.1 0-24.6s13.4-11.7 22.2-10.7H366c8.8-1 17.5 3.1 22.2 10.7 4.7 7.5 4.7 17.1 0 24.6-4.8 7.6-13.4 11.7-22.3 10.7z m53.2-130.2H207.8c-14.8 0-26.7-8-26.1-23.2 0-6.7 2.9-13 7.9-17.4 5-4.4 11.6-6.5 18.2-5.7h211.3c6.6-0.7 13.2 1.5 18.1 5.9 5 4.4 7.9 10.7 8 17.3 0.1 6.7-2.8 13.1-7.8 17.5s-11.7 6.4-18.3 5.6z m0 0" p-id="3321" fill="#909399"></path></svg>