<?xml version="1.0" standalone="no"?><!DOCTYPE svg PUBLIC "-//W3C//DTD SVG 1.1//EN" "http://www.w3.org/Graphics/SVG/1.1/DTD/svg11.dtd"><svg t="1590769489716" class="icon" viewBox="0 0 1024 1024" version="1.1" xmlns="http://www.w3.org/2000/svg" p-id="3338" width="32" height="32" xmlns:xlink="http://www.w3.org/1999/xlink"><defs><style type="text/css"></style></defs><path d="M262.3488 384.682667h-1.774933l-110.4896-42.222934a17.066667 17.066667 0 0 1-0.068267-31.880533l355.805867-137.557333a17.066667 17.066667 0 0 1 12.356266 0.034133L871.3216 310.613333a17.066667 17.066667 0 0 1-0.068267 31.812267l-109.568 42.257067v96.802133l3.003734 61.0304c48.059733 55.7056 36.181333 105.233067-35.6352 148.616533-8.704 5.256533-17.5104 34.781867-24.746667 45.499734-15.325867 22.766933-33.655467 45.7728-51.5072 62.464-38.843733 36.181333-85.777067 55.978667-140.8 59.357866l-11.639467-1.092266c-53.589333-6.007467-96.6656-24.234667-129.160533-54.647467-17.851733-16.725333-36.181333-39.662933-51.5072-62.464-7.236267-10.717867-16.042667-40.277333-24.746667-45.499733-69.495467-41.984-82.875733-89.736533-40.106666-143.2576l4.437333-5.358934 3.072-64.648533V384.682667z" fill="#909399" p-id="3339"></path><path d="M820.462933 344.507733L836.266667 341.333333l45.909333-12.3904v154.624a31.232 31.232 0 0 1-30.856533 31.232 30.481067 30.481067 0 0 1-30.856534-30.481066v-139.810134z" fill="#909399" p-id="3340"></path></svg>