<?xml version="1.0" standalone="no"?><!DOCTYPE svg PUBLIC "-//W3C//DTD SVG 1.1//EN" "http://www.w3.org/Graphics/SVG/1.1/DTD/svg11.dtd"><svg t="1590769532669" class="icon" viewBox="0 0 1102 1024" version="1.1" xmlns="http://www.w3.org/2000/svg" p-id="4385" width="34.4375" height="32" xmlns:xlink="http://www.w3.org/1999/xlink"><defs><style type="text/css"></style></defs><path d="M1071.49312 62.621538h-282.387692a30.483692 30.483692 0 0 0-30.72 30.72 30.483692 30.483692 0 0 0 30.72 30.79877h282.387692a30.483692 30.483692 0 0 0 30.72-30.72 30.483692 30.483692 0 0 0-30.72-30.79877z m-17.329231 372.81477a30.877538 30.877538 0 0 0-39.936 17.801846l-150.685538 388.804923A446.779077 446.779077 0 0 0 578.082658 561.624615 259.544615 259.544615 0 0 0 699.229735 341.858462c0-142.729846-115.003077-258.993231-255.92123-258.993231-141.469538 0-255.921231 116.263385-255.921231 258.993231a258.756923 258.756923 0 0 0 121.225846 219.608615A447.409231 447.409231 0 0 0 0.38912 946.018462c-1.811692 19.692308 4.332308 39.384615 17.880615 53.563076a69.395692 69.395692 0 0 0 51.042462 22.764308h749.883077a68.135385 68.135385 0 0 0 51.121231-22.843077 71.916308 71.916308 0 0 0 17.801846-53.484307c12.209231-26.230154 73.964308-182.902154 185.186461-470.016a33.083077 33.083077 0 0 0-19.062154-40.566154z m-8.507077-178.412308h-217.166769a30.483692 30.483692 0 0 0-30.798769 30.72 30.483692 30.483692 0 0 0 30.72 30.72h217.245538a30.483692 30.483692 0 0 0 30.72-30.72 30.483692 30.483692 0 0 0-30.72-30.72z" p-id="4386" fill="#909399"></path></svg>