<?xml version="1.0" standalone="no"?><!DOCTYPE svg PUBLIC "-//W3C//DTD SVG 1.1//EN" "http://www.w3.org/Graphics/SVG/1.1/DTD/svg11.dtd"><svg t="1590769405214" class="icon" viewBox="0 0 1024 1024" version="1.1" xmlns="http://www.w3.org/2000/svg" p-id="1451" width="32" height="32" xmlns:xlink="http://www.w3.org/1999/xlink"><defs><style type="text/css"></style></defs><path d="M128 640c-16 80-15.168 64.384-31.424 151.232C80 880 239.424 864.576 416 864c58.624-0.192 32-68.16 32-128 0-160 64-192 64-192s-368-16-384 96zM637.344 291.52C637.344 194.624 576 96 447.904 96 319.712 96 256 197.024 256 293.856 256 390.816 336 480 447.872 480c112.128 0 189.44-91.584 189.44-188.48z m75.52 528.416a106.56 106.56 0 1 1 0-213.12 106.56 106.56 0 0 1 0 213.12z m214.944-63.936L928 671.584s-55.712-11.04-56.672-14.784a218.272 218.272 0 0 0-3.392-12.16c6.528-12.096 37.952-38.72 37.952-38.72l-62.848-83.648s-40.736 33.536-50.848 38.368a182.72 182.72 0 0 0-14.88-5.024c-5.472-1.344-20.608-55.04-20.608-55.04l-84.608-0.704s-9.12 52-22.816 55.52a101.12 101.12 0 0 0-13.76 5.184c-10.144-4.928-50.816-38.976-50.816-38.976l-62.848 85.056s31.52 31.776 33.6 42.368c-1.344 3.328-2.56 6.72-3.776 10.208-13.472 4.672-52 12.352-52 12.352l0.224 84.416s44.704 9.28 53.216 16.768c1.792 4.896 3.808 9.6 5.984 14.24-10.304 12.896-37.888 34.432-37.888 34.432l64.832 84.352s50.88-32.928 59.264-34.816c4.128 1.792 8.352 3.52 12.704 4.992 7.68 2.688 13.088 51.84 13.088 51.84l84.48 0.192s2.88-48.256 9.024-50.144c6.144-1.92 12.16-4.16 17.92-6.72 7.136 2.784 40.512 36.064 40.512 36.064l83.52-85.056s-31.04-21.44-39.552-32.96c2.304-4.8 4.416-9.728 6.336-14.784 2.88-7.68 54.464-18.4 54.464-18.4z" fill="#909399" p-id="1452"></path></svg>