<?xml version="1.0" standalone="no"?><!DOCTYPE svg PUBLIC "-//W3C//DTD SVG 1.1//EN" "http://www.w3.org/Graphics/SVG/1.1/DTD/svg11.dtd"><svg t="1581831328762" class="icon" viewBox="0 0 1434 1024" version="1.1" xmlns="http://www.w3.org/2000/svg" p-id="8029" xmlns:xlink="http://www.w3.org/1999/xlink" width="44.8125" height="32"><defs><style type="text/css"></style></defs><path d="M0 102.4 0 0l1433.6 0 0 102.4L0 102.4zM460.8 409.6 0 409.6 0 307.2l460.8 0L460.8 409.6zM460.8 716.8 0 716.8l0-102.4 460.8 0L460.8 716.8zM768 1024 0 1024l0-102.4 768 0L768 1024zM661.9648 759.1936c-139.9808-139.9808-139.9808-366.8992 0-506.88 139.9808-139.9296 366.8992-139.9296 506.8288 0 127.5904 127.5904 137.5232 326.656 32.5632 466.9952l220.8768 220.8768-72.3968 72.3968-220.8768-220.8768C988.6208 896.7168 789.504 886.784 661.9648 759.1936zM1096.3968 686.7968c99.9936-99.9936 99.9936-262.0928 0-362.0352s-262.0416-99.9936-362.0352 0-99.9936 262.0416 0 362.0352C834.3552 786.7904 996.4544 786.7904 1096.3968 686.7968z" p-id="8030" fill="#909399"></path></svg>